<svg id="visual" viewBox="0 0 900 600" width="900" height="600" xmlns="http://www.w3.org/2000/svg" xmlns:xlink="http://www.w3.org/1999/xlink" version="1.1"><rect width="900" height="600" fill="#001122"></rect><g><g transform="translate(498 396)"><path d="M62.9 -17.5C71.4 5.9 61.4 38.3 39.3 54.5C17.2 70.7 -17.1 70.7 -38.4 54.7C-59.7 38.8 -68.1 7 -59.6 -16.5C-51 -39.9 -25.5 -55 0.8 -55.2C27.2 -55.5 54.3 -41 62.9 -17.5Z" stroke="#f72a0f" fill="none" stroke-width="20"></path></g><g transform="translate(318 539)"><path d="M46.3 -15.1C51.9 2.2 42.8 24.3 27.3 34.8C11.9 45.4 -9.9 44.5 -25.3 33.6C-40.6 22.8 -49.5 1.9 -44.2 -15C-38.9 -32 -19.5 -44.9 0.4 -45.1C20.3 -45.2 40.7 -32.5 46.3 -15.1Z" stroke="#f72a0f" fill="none" stroke-width="20"></path></g><g transform="translate(236 304)"><path d="M48.1 -13.6C55 5.6 48.2 31.3 31.4 43.5C14.6 55.8 -12.1 54.6 -28.1 42.1C-44.2 29.6 -49.6 5.9 -43.2 -12.7C-36.7 -31.3 -18.3 -44.6 1.1 -45C20.6 -45.4 41.2 -32.7 48.1 -13.6Z" stroke="#f72a0f" fill="none" stroke-width="20"></path></g><g transform="translate(121 480)"><path d="M28.5 -9.7C32.3 2.7 27.8 17.3 17.8 24.6C7.7 31.9 -7.7 31.9 -17.2 24.7C-26.7 17.6 -30.2 3.3 -26.3 -9C-22.5 -21.3 -11.2 -31.6 0.5 -31.8C12.3 -31.9 24.6 -22 28.5 -9.7Z" stroke="#f72a0f" fill="none" stroke-width="20"></path></g><g transform="translate(740 461)"><path d="M30.3 -10C34.3 2.4 29.1 17.7 18.6 25.3C8.1 32.8 -7.8 32.7 -18.2 25.1C-28.5 17.6 -33.4 2.6 -29.4 -9.7C-25.5 -22.1 -12.7 -31.7 0.2 -31.7C13.2 -31.8 26.3 -22.3 30.3 -10Z" stroke="#f72a0f" fill="none" stroke-width="20"></path></g><g transform="translate(55 261)"><path d="M29.9 -9.6C33.7 2.2 28.5 17.1 18.2 24.4C7.9 31.7 -7.4 31.5 -17.8 24C-28.2 16.5 -33.8 1.9 -30 -9.8C-26.3 -21.5 -13.1 -30.2 -0.1 -30.1C13 -30.1 26 -21.4 29.9 -9.6Z" stroke="#f72a0f" fill="none" stroke-width="20"></path></g><g transform="translate(216 85)"><path d="M29.7 -9.2C33.6 2.4 28.6 17.4 17.9 25.3C7.2 33.3 -9.1 34.1 -19.8 26.5C-30.5 18.9 -35.6 2.8 -31.4 -9.2C-27.2 -21.3 -13.6 -29.3 -0.4 -29.2C12.9 -29.1 25.8 -20.8 29.7 -9.2Z" stroke="#f72a0f" fill="none" stroke-width="20"></path></g><g transform="translate(567 159)"><path d="M37.2 -13.8C41.7 2 34.6 19.9 21 30C7.4 40.2 -12.7 42.6 -25.1 33.8C-37.6 24.9 -42.5 4.8 -37 -12.3C-31.6 -29.3 -15.8 -43.3 0.3 -43.4C16.3 -43.4 32.6 -29.7 37.2 -13.8Z" stroke="#f72a0f" fill="none" stroke-width="20"></path></g><g transform="translate(517 586)"><path d="M45.6 -13.9C52 4.9 45.2 28.9 28.6 41.4C12 54 -14.4 55.1 -30.3 43.2C-46.2 31.3 -51.7 6.4 -44.9 -13C-38.1 -32.4 -19 -46.2 0.3 -46.3C19.6 -46.4 39.2 -32.7 45.6 -13.9Z" stroke="#f72a0f" fill="none" stroke-width="20"></path></g><g transform="translate(868 588)"><path d="M41.6 -13.5C46.9 3 39.6 23.6 25.1 34.1C10.5 44.5 -11.1 44.8 -24.4 34.8C-37.8 24.8 -42.8 4.6 -37.4 -11.9C-31.9 -28.5 -16 -41.5 1.1 -41.8C18.1 -42.2 36.2 -29.9 41.6 -13.5Z" stroke="#f72a0f" fill="none" stroke-width="20"></path></g><g transform="translate(397 4)"><path d="M41.4 -13.9C46.3 1.7 37.9 21.2 23.5 31.5C9.1 41.8 -11.4 42.9 -24 33.6C-36.6 24.4 -41.2 4.7 -35.9 -11.4C-30.5 -27.6 -15.3 -40.4 1.5 -40.9C18.2 -41.3 36.4 -29.5 41.4 -13.9Z" stroke="#f72a0f" fill="none" stroke-width="20"></path></g><g transform="translate(29 76)"><path d="M38.5 -12.2C45 7.4 41.9 30.4 27.4 41.9C13 53.3 -12.9 53.3 -27.8 41.7C-42.7 30 -46.6 6.8 -40.2 -12.8C-33.7 -32.3 -16.9 -48.2 -0.4 -48.1C16 -48 32.1 -31.8 38.5 -12.2Z" stroke="#f72a0f" fill="none" stroke-width="20"></path></g><g transform="translate(712 54)"><path d="M34.6 -10.8C38.7 1.4 31.7 17.7 19.6 26.3C7.5 35 -9.7 36 -20.6 28.1C-31.5 20.2 -36.2 3.5 -31.7 -9.2C-27.2 -21.9 -13.6 -30.6 0.8 -30.8C15.2 -31.1 30.5 -23 34.6 -10.8Z" stroke="#f72a0f" fill="none" stroke-width="20"></path></g><g transform="translate(880 191)"><path d="M44.5 -14.2C50.4 3.8 43 26.3 28.1 36.7C13.2 47 -9.2 45.2 -23.3 34.4C-37.3 23.6 -43.2 3.9 -37.9 -13.2C-32.7 -30.3 -16.3 -44.6 1.5 -45.1C19.3 -45.6 38.6 -32.2 44.5 -14.2Z" stroke="#f72a0f" fill="none" stroke-width="20"></path></g><g transform="translate(403 235)"><path d="M54.7 -20.3C60.6 0.6 48.2 24.9 28.9 38.5C9.7 52.1 -16.2 55.1 -34 43.1C-51.7 31.1 -61.2 4.1 -54.1 -18.3C-47.1 -40.6 -23.6 -58.2 0.4 -58.3C24.4 -58.5 48.7 -41.1 54.7 -20.3Z" stroke="#f72a0f" fill="none" stroke-width="20"></path></g><g transform="translate(699 282)"><path d="M38.5 -11.9C42.9 1.2 34.8 19 21.8 27.9C8.8 36.8 -9 36.9 -20.7 28.4C-32.4 19.9 -38.1 2.8 -33.6 -10.3C-29.1 -23.4 -14.6 -32.7 1.2 -33.1C17 -33.5 34 -25 38.5 -11.9Z" stroke="#f72a0f" fill="none" stroke-width="20"></path></g></g></svg>