<svg id="visual" viewBox="0 0 900 600" width="900" height="600" xmlns="http://www.w3.org/2000/svg" xmlns:xlink="http://www.w3.org/1999/xlink" version="1.1"><path d="M0 37L11.5 38C23 39 46 41 69 41C92 41 115 39 138.2 38C161.3 37 184.7 37 207.8 34C231 31 254 25 277 25C300 25 323 31 346 32C369 33 392 29 415.2 28C438.3 27 461.7 29 484.8 28C508 27 531 23 554 24C577 25 600 31 623 37C646 43 669 49 692.2 46C715.3 43 738.7 31 761.8 25C785 19 808 19 831 24C854 29 877 39 888.5 44L900 49L900 0L888.5 0C877 0 854 0 831 0C808 0 785 0 761.8 0C738.7 0 715.3 0 692.2 0C669 0 646 0 623 0C600 0 577 0 554 0C531 0 508 0 484.8 0C461.7 0 438.3 0 415.2 0C392 0 369 0 346 0C323 0 300 0 277 0C254 0 231 0 207.8 0C184.7 0 161.3 0 138.2 0C115 0 92 0 69 0C46 0 23 0 11.5 0L0 0Z" fill="#a17463"></path><path d="M0 61L11.5 60C23 59 46 57 69 58C92 59 115 63 138.2 63C161.3 63 184.7 59 207.8 57C231 55 254 55 277 56C300 57 323 59 346 60C369 61 392 61 415.2 64C438.3 67 461.7 73 484.8 68C508 63 531 47 554 43C577 39 600 47 623 58C646 69 669 83 692.2 85C715.3 87 738.7 77 761.8 68C785 59 808 51 831 56C854 61 877 79 888.5 88L900 97L900 47L888.5 42C877 37 854 27 831 22C808 17 785 17 761.8 23C738.7 29 715.3 41 692.2 44C669 47 646 41 623 35C600 29 577 23 554 22C531 21 508 25 484.8 26C461.7 27 438.3 25 415.2 26C392 27 369 31 346 30C323 29 300 23 277 23C254 23 231 29 207.8 32C184.7 35 161.3 35 138.2 36C115 37 92 39 69 39C46 39 23 37 11.5 36L0 35Z" fill="#ab7d6b"></path><path d="M0 79L11.5 82C23 85 46 91 69 94C92 97 115 97 138.2 92C161.3 87 184.7 77 207.8 76C231 75 254 83 277 87C300 91 323 91 346 93C369 95 392 99 415.2 103C438.3 107 461.7 111 484.8 106C508 101 531 87 554 81C577 75 600 77 623 87C646 97 669 115 692.2 116C715.3 117 738.7 101 761.8 88C785 75 808 65 831 70C854 75 877 95 888.5 105L900 115L900 95L888.5 86C877 77 854 59 831 54C808 49 785 57 761.8 66C738.7 75 715.3 85 692.2 83C669 81 646 67 623 56C600 45 577 37 554 41C531 45 508 61 484.8 66C461.7 71 438.3 65 415.2 62C392 59 369 59 346 58C323 57 300 55 277 54C254 53 231 53 207.8 55C184.7 57 161.3 61 138.2 61C115 61 92 57 69 56C46 55 23 57 11.5 58L0 59Z" fill="#b58674"></path><path d="M0 115L11.5 116C23 117 46 119 69 123C92 127 115 133 138.2 133C161.3 133 184.7 127 207.8 122C231 117 254 113 277 115C300 117 323 125 346 129C369 133 392 133 415.2 138C438.3 143 461.7 153 484.8 151C508 149 531 135 554 125C577 115 600 109 623 116C646 123 669 143 692.2 149C715.3 155 738.7 147 761.8 137C785 127 808 115 831 120C854 125 877 147 888.5 158L900 169L900 113L888.5 103C877 93 854 73 831 68C808 63 785 73 761.8 86C738.7 99 715.3 115 692.2 114C669 113 646 95 623 85C600 75 577 73 554 79C531 85 508 99 484.8 104C461.7 109 438.3 105 415.2 101C392 97 369 93 346 91C323 89 300 89 277 85C254 81 231 73 207.8 74C184.7 75 161.3 85 138.2 90C115 95 92 95 69 92C46 89 23 83 11.5 80L0 77Z" fill="#c08f7c"></path><path d="M0 139L11.5 142C23 145 46 151 69 154C92 157 115 157 138.2 158C161.3 159 184.7 161 207.8 155C231 149 254 135 277 132C300 129 323 137 346 143C369 149 392 153 415.2 159C438.3 165 461.7 173 484.8 174C508 175 531 169 554 160C577 151 600 139 623 141C646 143 669 159 692.2 163C715.3 167 738.7 159 761.8 153C785 147 808 143 831 149C854 155 877 171 888.5 179L900 187L900 167L888.5 156C877 145 854 123 831 118C808 113 785 125 761.8 135C738.7 145 715.3 153 692.2 147C669 141 646 121 623 114C600 107 577 113 554 123C531 133 508 147 484.8 149C461.7 151 438.3 141 415.2 136C392 131 369 131 346 127C323 123 300 115 277 113C254 111 231 115 207.8 120C184.7 125 161.3 131 138.2 131C115 131 92 125 69 121C46 117 23 115 11.5 114L0 113Z" fill="#ca9885"></path><path d="M0 187L11.5 194C23 201 46 215 69 227C92 239 115 249 138.2 251C161.3 253 184.7 247 207.8 232C231 217 254 193 277 192C300 191 323 213 346 217C369 221 392 207 415.2 213C438.3 219 461.7 245 484.8 253C508 261 531 251 554 237C577 223 600 205 623 200C646 195 669 203 692.2 208C715.3 213 738.7 215 761.8 221C785 227 808 237 831 238C854 239 877 231 888.5 227L900 223L900 185L888.5 177C877 169 854 153 831 147C808 141 785 145 761.8 151C738.7 157 715.3 165 692.2 161C669 157 646 141 623 139C600 137 577 149 554 158C531 167 508 173 484.8 172C461.7 171 438.3 163 415.2 157C392 151 369 147 346 141C323 135 300 127 277 130C254 133 231 147 207.8 153C184.7 159 161.3 157 138.2 156C115 155 92 155 69 152C46 149 23 143 11.5 140L0 137Z" fill="#d5a18e"></path><path d="M0 247L11.5 252C23 257 46 267 69 284C92 301 115 325 138.2 331C161.3 337 184.7 325 207.8 304C231 283 254 253 277 248C300 243 323 263 346 269C369 275 392 267 415.2 274C438.3 281 461.7 303 484.8 313C508 323 531 321 554 306C577 291 600 263 623 255C646 247 669 259 692.2 261C715.3 263 738.7 255 761.8 263C785 271 808 295 831 296C854 297 877 275 888.5 264L900 253L900 221L888.5 225C877 229 854 237 831 236C808 235 785 225 761.8 219C738.7 213 715.3 211 692.2 206C669 201 646 193 623 198C600 203 577 221 554 235C531 249 508 259 484.8 251C461.7 243 438.3 217 415.2 211C392 205 369 219 346 215C323 211 300 189 277 190C254 191 231 215 207.8 230C184.7 245 161.3 251 138.2 249C115 247 92 237 69 225C46 213 23 199 11.5 192L0 185Z" fill="#d8a794"></path><path d="M0 433L11.5 420C23 407 46 381 69 377C92 373 115 391 138.2 405C161.3 419 184.7 429 207.8 420C231 411 254 383 277 384C300 385 323 415 346 415C369 415 392 385 415.2 386C438.3 387 461.7 419 484.8 424C508 429 531 407 554 401C577 395 600 405 623 419C646 433 669 451 692.2 449C715.3 447 738.7 425 761.8 416C785 407 808 411 831 416C854 421 877 427 888.5 430L900 433L900 251L888.5 262C877 273 854 295 831 294C808 293 785 269 761.8 261C738.7 253 715.3 261 692.2 259C669 257 646 245 623 253C600 261 577 289 554 304C531 319 508 321 484.8 311C461.7 301 438.3 279 415.2 272C392 265 369 273 346 267C323 261 300 241 277 246C254 251 231 281 207.8 302C184.7 323 161.3 335 138.2 329C115 323 92 299 69 282C46 265 23 255 11.5 250L0 245Z" fill="#daad9a"></path><path d="M0 463L11.5 452C23 441 46 419 69 414C92 409 115 421 138.2 433C161.3 445 184.7 457 207.8 450C231 443 254 417 277 418C300 419 323 447 346 446C369 445 392 415 415.2 419C438.3 423 461.7 461 484.8 466C508 471 531 443 554 436C577 429 600 443 623 458C646 473 669 489 692.2 492C715.3 495 738.7 485 761.8 478C785 471 808 467 831 471C854 475 877 487 888.5 493L900 499L900 431L888.5 428C877 425 854 419 831 414C808 409 785 405 761.8 414C738.7 423 715.3 445 692.2 447C669 449 646 431 623 417C600 403 577 393 554 399C531 405 508 427 484.8 422C461.7 417 438.3 385 415.2 384C392 383 369 413 346 413C323 413 300 383 277 382C254 381 231 409 207.8 418C184.7 427 161.3 417 138.2 403C115 389 92 371 69 375C46 379 23 405 11.5 418L0 431Z" fill="#ddb2a1"></path><path d="M0 487L11.5 478C23 469 46 451 69 447C92 443 115 453 138.2 463C161.3 473 184.7 483 207.8 477C231 471 254 449 277 451C300 453 323 479 346 478C369 477 392 449 415.2 453C438.3 457 461.7 493 484.8 495C508 497 531 465 554 459C577 453 600 473 623 488C646 503 669 513 692.2 515C715.3 517 738.7 511 761.8 504C785 497 808 489 831 492C854 495 877 509 888.5 516L900 523L900 497L888.5 491C877 485 854 473 831 469C808 465 785 469 761.8 476C738.7 483 715.3 493 692.2 490C669 487 646 471 623 456C600 441 577 427 554 434C531 441 508 469 484.8 464C461.7 459 438.3 421 415.2 417C392 413 369 443 346 444C323 445 300 417 277 416C254 415 231 441 207.8 448C184.7 455 161.3 443 138.2 431C115 419 92 407 69 412C46 417 23 439 11.5 450L0 461Z" fill="#dfb8a7"></path><path d="M0 601L11.5 601C23 601 46 601 69 601C92 601 115 601 138.2 601C161.3 601 184.7 601 207.8 601C231 601 254 601 277 601C300 601 323 601 346 601C369 601 392 601 415.2 601C438.3 601 461.7 601 484.8 601C508 601 531 601 554 601C577 601 600 601 623 601C646 601 669 601 692.2 601C715.3 601 738.7 601 761.8 601C785 601 808 601 831 601C854 601 877 601 888.5 601L900 601L900 521L888.5 514C877 507 854 493 831 490C808 487 785 495 761.8 502C738.7 509 715.3 515 692.2 513C669 511 646 501 623 486C600 471 577 451 554 457C531 463 508 495 484.8 493C461.7 491 438.3 455 415.2 451C392 447 369 475 346 476C323 477 300 451 277 449C254 447 231 469 207.8 475C184.7 481 161.3 471 138.2 461C115 451 92 441 69 445C46 449 23 467 11.5 476L0 485Z" fill="#e2beae"></path></svg>